<svg width="751" height="751" viewBox="0 0 751 751" fill="none" xmlns="http://www.w3.org/2000/svg">
<circle cx="375.5" cy="375.5" r="375.5" fill="#030504"/>
<path d="M222.943 207.765V191.765H378.943C407.276 191.765 433.11 195.765 456.443 203.765C479.776 211.765 499.943 223.431 516.943 238.765C534.276 254.098 547.61 272.765 556.943 294.765C566.276 316.431 570.943 340.931 570.943 368.265C570.943 395.598 566.276 420.265 556.943 442.265C547.61 463.931 534.276 482.598 516.943 498.265C499.943 513.931 479.776 525.931 456.443 534.265C433.11 542.598 407.276 546.765 378.943 546.765H222.943V530.765H226.443C236.11 530.765 244.61 529.598 251.943 527.265C259.276 524.931 262.943 520.098 262.943 512.765V225.765C262.943 218.431 259.276 213.598 251.943 211.265C244.61 208.931 236.11 207.765 226.443 207.765H222.943ZM378.443 211.265H325.943V527.265H378.443C397.443 527.265 414.61 523.931 429.943 517.265C445.276 510.265 458.443 500.098 469.443 486.765C480.776 473.098 489.276 456.431 494.943 436.765C500.943 417.098 503.943 394.265 503.943 368.265C503.943 342.265 500.943 319.431 494.943 299.765C489.276 280.098 480.776 263.765 469.443 250.765C458.443 237.431 445.276 227.598 429.943 221.265C414.61 214.598 397.443 211.265 378.443 211.265Z" fill="#62DCAD"/>
</svg>
